<svg id="图层_1" data-name="图层 1" xmlns="http://www.w3.org/2000/svg" viewBox="0 0 97.16 56.57"><defs><style>.cls-1{fill:#BADEFD;}.cls-2{fill:#7BC6FE;}.cls-3{fill:#25A1FE;}</style></defs><title>DREAMSKY-LOGO</title><polygon class="cls-1" points="25.68 8.85 5.62 27.46 17.01 27.46 25.68 18.15 35.13 27.46 45.57 27.46 25.68 8.85"/><polygon class="cls-1" points="72.98 8.85 52.91 27.46 63.05 27.46 72.98 18.15 82.3 27.46 92.87 27.46 72.98 8.85"/><polygon class="cls-2" points="49.15 0 29.09 38.68 40.48 38.68 49.15 19.34 58.47 38.68 69.04 38.68 49.15 0"/><polygon class="cls-3" points="49.2 26.87 44.09 38.68 54.61 38.68 49.2 26.87"/><path class="cls-2" d="M1,59V47.41H6.74l1.51,1.51v8.54L6.68,59H1ZM5.19,50H4v6.46H5.19Z" transform="translate(-1 -2.51)"/><path class="cls-2" d="M13.36,59V47.41h5.72L20.61,49v2.87l-1.23,1.26,1.23,1.21V59h-3V54.34H16.39V59h-3Zm4.22-9.19H16.39v2h1.19Z" transform="translate(-1 -2.51)"/><path class="cls-2" d="M25.75,59V47.41H32V50.2H28.77v1.51h3V54.5h-3v1.6H32V59H25.75Z" transform="translate(-1 -2.51)"/><path class="cls-2" d="M36.47,59l1.92-11.63H43L44.91,59H41.65l-.22-1.91H39.92L39.7,59H36.47Zm4.39-7.6-.12-1,0-.41,0-.41,0,.41,0,.41-.13,1L40,54.5h1.32l-.47-3.06v0Z" transform="translate(-1 -2.51)"/><path class="cls-2" d="M49.47,59V47.41H54l.82,4.85a2.94,2.94,0,0,1,.05.44c0,.27,0,.62.08,1l.06.62.07.63,0-.63,0-.62c0-.31,0-.62.06-.91a3,3,0,0,1,.08-.59l.82-4.85h4.51V59H57.87V53.41L58,51.74V50.05l-.09.65-.16,1-.25,1.67L56.39,59H53.64l-1.07-5.61,0-.13-.2-1.54-.13-.83-.11-.86,0,1.67.06,1.67V59H49.45Z" transform="translate(-1 -2.51)"/><path class="cls-2" d="M65.76,57.46V55.1l3.06-.48v1.86H70V55l-4.2-2.33V49l1.52-1.55H71.5L73,48.89v1.94L70,51.3V49.91H68.82V51L73,53.35v4.19L71.5,59.08H67.36l-1.58-1.57v0Z" transform="translate(-1 -2.51)"/><path class="cls-2" d="M78.12,59V47.41h3V51.6l1.38-4.19H85.9l-2.06,5L86.41,59H83l-1.82-5.25V59h-3v0Z" transform="translate(-1 -2.51)"/><path class="cls-2" d="M90,47.41h3.27l.6,3,.13,1,.06.6v.38l.05-.51.06-.47.1-.88v-.1l.59-3h3.26L95.6,55v4h-3V55L90,47.41v0Z" transform="translate(-1 -2.51)"/></svg>