<?xml version="1.0" standalone="no"?><!DOCTYPE svg PUBLIC "-//W3C//DTD SVG 1.1//EN" "http://www.w3.org/Graphics/SVG/1.1/DTD/svg11.dtd"><svg t="1542881292939" class="icon" style="" viewBox="0 0 1024 1024" version="1.1" xmlns="http://www.w3.org/2000/svg" p-id="1262" xmlns:xlink="http://www.w3.org/1999/xlink" width="200" height="200"><defs><style type="text/css"></style></defs><path d="M748 256.1H276c-99 0-180 81-180 180v151.8c0 99 81 180 180 180h472c99 0 180-81 180-180V436.1c0-99-81-180-180-180z m120 331.8c-0.3 66.2-53.8 119.7-120 120H276c-66.2-0.3-119.7-53.8-120-120V436.1c0.3-66.2 53.8-119.7 120-120h472c66.2 0.3 119.7 53.8 120 120v151.8z" p-id="1263" fill="#d4237a"></path><path d="M354.4 413.6l-5 5v111.1l-91-108.4c-2.8-3.4-6.7-5.9-11-7-4.2-1.1-8.7-0.9-12.9 0.5-8.5 3.1-14.2 11.2-14.2 20.3v170.2l5 5h33l5-5v-111l91 108.4c4.1 5 10.2 7.8 16.6 7.6 7-0.1 13.5-3.5 17.6-9.2 2.6-3.6 3.9-7.9 3.9-12.4V418.6l-5-5h-33zM446.3 567.4v-33.9h81.8l5-5v-33.1l-5-5h-81.8v-33.7h95l5-5v-33.1l-5-5H424.6c-11.8 0-21.4 9.7-21.3 21.5V589c0 11.8 9.7 21.4 21.5 21.3h116.5l5-5v-33l-5-5h-95zM785.6 413.7l-4.7 3.3L743 524.1l-34-96.2c-3.1-9-9.9-14-19.5-14.3H688c-9.7 0.3-16.4 5.3-19.5 14.3l-34.1 96.2L596.7 417l-4.7-3.3h-35l-4.7 6.7 62 175.6c1.4 4.3 4.2 8 7.9 10.6 7.5 5.2 17.4 5.2 24.8 0 3.7-2.5 6.5-6.2 7.8-10.5l34-96.1 34 96c1.4 4.3 4.2 8 7.9 10.6 3.7 2.6 8 3.9 12.5 3.9 4.4 0 8.7-1.3 12.3-3.9 3.7-2.5 6.5-6.2 7.8-10.5l62.1-175.7-4.7-6.7h-35.1z" p-id="1264" fill="#d4237a"></path></svg>